<svg width="147" height="40" viewBox="0 0 147 40" fill="none" xmlns="http://www.w3.org/2000/svg">
<path d="M52.437 14.1643C53.5314 15.2886 53.5314 17.1116 52.437 18.2359L32.554 38.6637C31.4597 39.788 29.6854 39.788 28.591 38.6637L16.0786 25.8085C14.9842 24.6841 14.9842 22.8612 16.0786 21.7368L35.9616 1.30908C37.0559 0.184731 38.8303 0.184733 39.9246 1.30909L52.437 14.1643Z" fill="#4A6DFF"/>
<path d="M37.1792 14.1643C38.2736 15.2886 38.2736 17.1116 37.1792 18.2359L17.2962 38.6637C16.2019 39.788 14.4275 39.788 13.3332 38.6637L0.820777 25.8085C-0.273593 24.6841 -0.273592 22.8612 0.820778 21.7368L20.7038 1.30908C21.7981 0.184731 23.5725 0.184733 24.6668 1.30909L37.1792 14.1643Z" fill="#2EB9FF"/>
<path d="M74.3781 21.4243C75.4343 21.6266 76.3026 22.1692 76.9829 23.0521C77.6632 23.9349 78.0033 24.9465 78.0033 26.0869C78.0033 27.1169 77.7527 28.0273 77.2514 28.8182C76.768 29.5907 76.0609 30.1976 75.13 30.6391C74.1991 31.0805 73.0981 31.3012 71.827 31.3012H63.7441V12.044H71.4779C72.749 12.044 73.841 12.2555 74.754 12.6785C75.685 13.1016 76.3831 13.6901 76.8486 14.4443C77.332 15.1984 77.5736 16.0536 77.5736 17.01C77.5736 18.132 77.2783 19.07 76.6875 19.8241C76.1146 20.5782 75.3448 21.1116 74.3781 21.4243ZM67.5036 19.9897H70.9409C71.836 19.9897 72.5252 19.7873 73.0086 19.3827C73.4919 18.9597 73.7336 18.3619 73.7336 17.5894C73.7336 16.8169 73.4919 16.2192 73.0086 15.7961C72.5252 15.3731 71.836 15.1616 70.9409 15.1616H67.5036V19.9897ZM71.2899 28.156C72.203 28.156 72.9101 27.9353 73.4114 27.4939C73.9305 27.0525 74.1901 26.4271 74.1901 25.6178C74.1901 24.7902 73.9216 24.1464 73.3845 23.6866C72.8474 23.2084 72.1224 22.9693 71.2094 22.9693H67.5036V28.156H71.2899Z" fill="#000041"/>
<path d="M86.5314 31.5495C85.0992 31.5495 83.8102 31.2276 82.6645 30.5839C81.5187 29.9217 80.6147 28.9929 79.9523 27.7974C79.3078 26.6019 78.9855 25.2224 78.9855 23.659C78.9855 22.0956 79.3167 20.7162 79.9791 19.5206C80.6594 18.3251 81.5814 17.4055 82.745 16.7617C83.9087 16.0996 85.2066 15.7685 86.6388 15.7685C88.071 15.7685 89.3689 16.0996 90.5325 16.7617C91.6962 17.4055 92.6092 18.3251 93.2716 19.5206C93.9518 20.7162 94.292 22.0956 94.292 23.659C94.292 25.2224 93.9429 26.6019 93.2447 27.7974C92.5644 28.9929 91.6335 29.9217 90.452 30.5839C89.2883 31.2276 87.9814 31.5495 86.5314 31.5495ZM86.5314 28.1836C87.2116 28.1836 87.8472 28.0181 88.4379 27.687C89.0466 27.3376 89.53 26.8226 89.888 26.142C90.2461 25.4615 90.4251 24.6338 90.4251 23.659C90.4251 22.206 90.0492 21.0932 89.2973 20.3207C88.5633 19.5298 87.6592 19.1344 86.5851 19.1344C85.5109 19.1344 84.6069 19.5298 83.8729 20.3207C83.1568 21.0932 82.7987 22.206 82.7987 23.659C82.7987 25.112 83.1478 26.234 83.846 27.0249C84.5621 27.7974 85.4572 28.1836 86.5314 28.1836Z" fill="#000041"/>
<path d="M99.7351 18.3895C100.218 17.5802 100.845 16.9457 101.615 16.4858C102.402 16.026 103.298 15.7961 104.3 15.7961V19.8517H103.307C102.125 19.8517 101.23 20.1368 100.621 20.707C100.03 21.2772 99.7351 22.2704 99.7351 23.6866V31.3012H95.9756V16.0168H99.7351V18.3895Z" fill="#000041"/>
<path d="M104.791 23.6038C104.791 22.0588 105.087 20.6886 105.678 19.4931C106.286 18.2975 107.11 17.3779 108.148 16.7341C109.186 16.0904 110.341 15.7685 111.612 15.7685C112.579 15.7685 113.501 15.9892 114.378 16.4307C115.255 16.8537 115.954 17.4239 116.473 18.1412V10.8853H120.286V31.3012H116.473V29.0389C116.007 29.793 115.354 30.4 114.512 30.8598C113.671 31.3196 112.695 31.5495 111.585 31.5495C110.332 31.5495 109.186 31.2184 108.148 30.5563C107.11 29.8942 106.286 28.9653 105.678 27.7698C105.087 26.5559 104.791 25.1672 104.791 23.6038ZM116.5 23.659C116.5 22.721 116.321 21.9209 115.962 21.2588C115.604 20.5782 115.121 20.0632 114.512 19.7138C113.904 19.3459 113.25 19.162 112.552 19.162C111.854 19.162 111.209 19.3367 110.619 19.6862C110.028 20.0356 109.545 20.5506 109.169 21.2312C108.811 21.8933 108.632 22.6842 108.632 23.6038C108.632 24.5235 108.811 25.3328 109.169 26.0317C109.545 26.7122 110.028 27.2364 110.619 27.6043C111.227 27.9721 111.872 28.156 112.552 28.156C113.25 28.156 113.904 27.9813 114.512 27.6319C115.121 27.264 115.604 26.749 115.962 26.0869C116.321 25.4063 116.5 24.597 116.5 23.659Z" fill="#000041"/>
<path d="M136.713 23.3279C136.713 23.8797 136.677 24.3763 136.606 24.8178H125.73C125.819 25.9213 126.195 26.7858 126.858 27.4111C127.52 28.0365 128.335 28.3492 129.301 28.3492C130.698 28.3492 131.691 27.733 132.282 26.5007H136.337C135.907 27.9721 135.084 29.186 133.867 30.1425C132.649 31.0805 131.154 31.5495 129.382 31.5495C127.95 31.5495 126.661 31.2276 125.515 30.5839C124.387 29.9217 123.501 28.9929 122.857 27.7974C122.23 26.6019 121.917 25.2224 121.917 23.659C121.917 22.0772 122.23 20.6886 122.857 19.4931C123.483 18.2975 124.36 17.3779 125.488 16.7341C126.616 16.0904 127.914 15.7685 129.382 15.7685C130.796 15.7685 132.058 16.0812 133.168 16.7066C134.296 17.3319 135.164 18.224 135.773 19.3827C136.4 20.5231 136.713 21.8381 136.713 23.3279ZM132.819 22.2244C132.801 21.2312 132.452 20.4403 131.772 19.8517C131.092 19.2448 130.259 18.9413 129.275 18.9413C128.344 18.9413 127.556 19.2356 126.912 19.8241C126.285 20.3943 125.9 21.1944 125.757 22.2244H132.819Z" fill="#000041"/>
<path d="M142.142 18.3895C142.626 17.5802 143.252 16.9457 144.022 16.4858C144.81 16.026 145.705 15.7961 146.708 15.7961V19.8517H145.714C144.532 19.8517 143.637 20.1368 143.029 20.707C142.438 21.2772 142.142 22.2704 142.142 23.6866V31.3012H138.383V16.0168H142.142V18.3895Z" fill="#000041"/>
</svg>
