<svg width="12" height="14" viewBox="0 0 12 14" fill="none" xmlns="http://www.w3.org/2000/svg">
<path d="M5.99935 6.99992C6.36602 6.99992 6.6799 6.86936 6.94102 6.60825C7.20213 6.34714 7.33268 6.03325 7.33268 5.66658C7.33268 5.29992 7.20213 4.98603 6.94102 4.72492C6.6799 4.46381 6.36602 4.33325 5.99935 4.33325C5.63268 4.33325 5.31879 4.46381 5.05768 4.72492C4.79657 4.98603 4.66602 5.29992 4.66602 5.66658C4.66602 6.03325 4.79657 6.34714 5.05768 6.60825C5.31879 6.86936 5.63268 6.99992 5.99935 6.99992ZM5.99935 11.8999C7.3549 10.6555 8.36046 9.52492 9.01602 8.50825C9.67157 7.49158 9.99935 6.58881 9.99935 5.79992C9.99935 4.58881 9.61324 3.59714 8.84102 2.82492C8.06879 2.0527 7.12157 1.66659 5.99935 1.66659C4.87713 1.66659 3.9299 2.0527 3.15768 2.82492C2.38546 3.59714 1.99935 4.58881 1.99935 5.79992C1.99935 6.58881 2.32713 7.49158 2.98268 8.50825C3.63824 9.52492 4.64379 10.6555 5.99935 11.8999ZM5.99935 13.6666C4.21046 12.1444 2.87435 10.7305 1.99102 9.42492C1.10768 8.11936 0.666016 6.91103 0.666016 5.79992C0.666016 4.13325 1.20213 2.80547 2.27435 1.81659C3.34657 0.827696 4.58824 0.333252 5.99935 0.333252C7.41046 0.333252 8.65213 0.827696 9.72435 1.81659C10.7966 2.80547 11.3327 4.13325 11.3327 5.79992C11.3327 6.91103 10.891 8.11936 10.0077 9.42492C9.12435 10.7305 7.78824 12.1444 5.99935 13.6666Z" fill="#AAAAAA"/>
</svg>
