<svg width="14" height="13" viewBox="0 0 14 13" fill="none" xmlns="http://www.w3.org/2000/svg">
<path d="M1.66732 12.9999C1.30065 12.9999 0.986762 12.8694 0.725651 12.6083C0.46454 12.3471 0.333984 12.0333 0.333984 11.6666V4.33325C0.333984 3.96659 0.46454 3.6527 0.725651 3.39159C0.986762 3.13047 1.30065 2.99992 1.66732 2.99992H4.33398V1.66659C4.33398 1.29992 4.46454 0.98603 4.72565 0.724919C4.98676 0.463808 5.30065 0.333252 5.66732 0.333252H8.33398C8.70065 0.333252 9.01454 0.463808 9.27565 0.724919C9.53676 0.98603 9.66732 1.29992 9.66732 1.66659V2.99992H12.334C12.7007 2.99992 13.0145 3.13047 13.2757 3.39159C13.5368 3.6527 13.6673 3.96659 13.6673 4.33325V11.6666C13.6673 12.0333 13.5368 12.3471 13.2757 12.6083C13.0145 12.8694 12.7007 12.9999 12.334 12.9999H1.66732ZM1.66732 11.6666H12.334V4.33325H1.66732V11.6666ZM5.66732 2.99992H8.33398V1.66659H5.66732V2.99992Z" fill="#AAAAAA"/>
</svg>
