<svg width="66" height="63" viewBox="0 0 66 63" fill="none" xmlns="http://www.w3.org/2000/svg">
<circle cx="26" cy="23" r="40" fill="#9C22B0"/>
<path d="M31.7297 35.5811C31.7297 35.5811 31.572 35.7387 31.2567 36.054C30.9414 36.3694 30.3558 36.527 29.4999 36.527C28.6441 36.527 27.9008 36.2117 27.2702 35.5811C26.6396 34.9504 26.3243 34.1959 26.3243 33.3176C26.3243 32.4392 26.6396 31.6959 27.2702 31.0878C27.9008 30.4797 28.6441 30.1757 29.4999 30.1757C30.3558 30.1757 31.099 30.4797 31.7297 31.0878C32.3603 31.6959 32.6756 32.4392 32.6756 33.3176C32.6756 34.1959 32.3603 34.9504 31.7297 35.5811ZM29.4999 31.527C29.0044 31.527 28.5765 31.7072 28.2162 32.0676C27.8558 32.4279 27.6756 32.8558 27.6756 33.3513C27.6756 33.8468 27.8558 34.2748 28.2162 34.6351C28.5765 34.9955 29.0044 35.1757 29.4999 35.1757C29.9954 35.1757 30.4234 34.9955 30.7837 34.6351C31.1441 34.2748 31.3243 33.8468 31.3243 33.3513C31.3243 32.991 31.2454 32.6757 31.0878 32.4054C30.9301 32.1351 30.7049 31.9212 30.4121 31.7635C30.1193 31.6058 29.8152 31.527 29.4999 31.527ZM33.6216 29.2297C33.3513 29.2297 33.1486 29.1284 33.0134 28.9257C32.8783 28.723 32.8558 28.509 32.9459 28.2838C33.1261 27.9234 33.3851 27.777 33.7229 27.8446C34.0607 27.9121 34.2522 28.1486 34.2972 28.554C34.2972 28.7342 34.2297 28.8919 34.0945 29.027C33.9594 29.1621 33.8017 29.2297 33.6216 29.2297ZM44.6351 14.5676C45.2207 14.5676 45.7274 14.7815 46.1553 15.2094C46.5833 15.6374 46.7972 16.1441 46.7972 16.7297C46.7972 17.3153 46.5833 17.8221 46.1553 18.25C45.7274 18.6779 45.2207 18.8919 44.6351 18.8919C43.599 18.8919 42.9234 18.3964 42.608 17.4054H38.7567C39.1621 17.7207 39.5675 18.0585 39.9729 18.4189C41.5495 19.9504 42.3828 21.7973 42.4729 23.9594C42.9684 24.0946 43.3851 24.3761 43.7229 24.804C44.0607 25.232 44.2297 25.7162 44.2297 26.2567C44.2297 26.9324 43.9932 27.5067 43.5202 27.9797C43.0472 28.4527 42.4729 28.6892 41.7972 28.6892C41.1216 28.6892 40.5472 28.4527 40.0743 27.9797C39.6013 27.5067 39.3648 26.9324 39.3648 26.2567C39.3648 25.7162 39.5337 25.232 39.8716 24.804C40.2094 24.3761 40.6261 24.0946 41.1216 23.9594C41.0315 22.1576 40.3107 20.6148 38.9594 19.3311C37.608 18.0473 36.0315 17.4054 34.2297 17.4054H32.608C32.518 18.2162 32.1801 18.9031 31.5945 19.4662C31.0089 20.0293 30.3107 20.3108 29.4999 20.3108C28.9594 20.3108 28.4639 20.1757 28.0134 19.9054C27.563 19.6351 27.1914 19.286 26.8986 18.8581C26.6058 18.4302 26.4369 17.9459 26.3918 17.4054H24.7702C22.9684 17.4054 21.3918 18.0473 20.0405 19.3311C18.6891 20.6148 17.9684 22.1576 17.8783 23.9594C18.3738 24.0946 18.7905 24.3761 19.1283 24.804C19.4661 25.232 19.6351 25.7162 19.6351 26.2567C19.6351 26.9324 19.3986 27.5067 18.9256 27.9797C18.4526 28.4527 17.8783 28.6892 17.2026 28.6892C16.527 28.6892 15.9526 28.4527 15.4797 27.9797C15.0067 27.5067 14.7702 26.9324 14.7702 26.2567C14.7702 25.7162 14.9391 25.232 15.277 24.804C15.6148 24.3761 16.0315 24.0946 16.527 23.9594C16.6171 21.7973 17.4504 19.9504 19.027 18.4189C19.4324 18.0585 19.8378 17.7207 20.2432 17.4054H16.3918C16.0765 18.3964 15.4008 18.8919 14.3648 18.8919C13.7792 18.8919 13.2725 18.6779 12.8445 18.25C12.4166 17.8221 12.2026 17.3153 12.2026 16.7297C12.2026 16.1441 12.4166 15.6374 12.8445 15.2094C13.2725 14.7815 13.7792 14.5676 14.3648 14.5676C15.4008 14.5676 16.0765 15.063 16.3918 16.054H26.5945C26.8198 15.4685 27.1914 14.9955 27.7094 14.6351C28.2274 14.2748 28.8243 14.0946 29.4999 14.0946C29.9504 14.0946 30.3671 14.1734 30.7499 14.3311C31.1328 14.4887 31.4707 14.7252 31.7634 15.0405C32.0562 15.3558 32.2702 15.6937 32.4053 16.054H42.608C42.9234 15.063 43.599 14.5676 44.6351 14.5676ZM13.7905 17.304C13.7905 17.304 13.8299 17.3435 13.9087 17.4223C13.9875 17.5011 14.1396 17.5405 14.3648 17.5405C14.59 17.5405 14.7815 17.4617 14.9391 17.304C15.0968 17.1464 15.1756 16.9549 15.1756 16.7297C15.1756 16.5045 15.0968 16.313 14.9391 16.1554C14.7815 15.9977 14.59 15.9189 14.3648 15.9189C14.1396 15.9189 13.9481 15.9977 13.7905 16.1554C13.6328 16.313 13.554 16.5045 13.554 16.7297C13.554 16.9549 13.6328 17.1464 13.7905 17.304ZM17.9459 27.0338C17.9459 27.0338 18.0022 26.9831 18.1148 26.8817C18.2274 26.7804 18.2837 26.5833 18.2837 26.2905C18.2837 25.9977 18.1711 25.75 17.9459 25.5473C17.7207 25.3446 17.4729 25.2432 17.2026 25.2432C16.9324 25.2432 16.6846 25.3446 16.4594 25.5473C16.2342 25.75 16.1216 25.9865 16.1216 26.2567C16.1216 26.482 16.1779 26.6734 16.2905 26.8311C16.4031 26.9887 16.5382 27.1126 16.6959 27.2027C16.8535 27.2928 17.0225 27.3378 17.2026 27.3378C17.4729 27.3378 17.7207 27.2365 17.9459 27.0338ZM29.4999 18.9594C29.9954 18.9594 30.4121 18.7793 30.7499 18.4189C31.0878 18.0585 31.2567 17.6531 31.2567 17.2027C31.2567 16.8874 31.1779 16.5946 31.0202 16.3243C30.8625 16.054 30.6486 15.8401 30.3783 15.6824C30.108 15.5248 29.8152 15.4459 29.4999 15.4459C29.0044 15.4459 28.5878 15.6148 28.2499 15.9527C27.9121 16.2905 27.7432 16.7072 27.7432 17.2027C27.7432 17.4279 27.7882 17.6419 27.8783 17.8446C27.9684 18.0473 28.0923 18.2275 28.2499 18.3851C28.4076 18.5428 28.599 18.6779 28.8243 18.7905C29.0495 18.9031 29.2747 18.9594 29.4999 18.9594ZM42.5405 27.0338C42.5405 27.0338 42.5968 26.9831 42.7094 26.8817C42.822 26.7804 42.8783 26.5833 42.8783 26.2905C42.8783 25.9977 42.7657 25.75 42.5405 25.5473C42.3152 25.3446 42.0562 25.2432 41.7634 25.2432C41.4707 25.2432 41.2229 25.3446 41.0202 25.5473C40.8175 25.75 40.7161 25.9865 40.7161 26.2567C40.7161 26.482 40.7612 26.6734 40.8513 26.8311C40.9414 26.9887 41.0765 27.1126 41.2567 27.2027C41.4369 27.2928 41.6171 27.3378 41.7972 27.3378C42.0675 27.3378 42.3152 27.2365 42.5405 27.0338ZM44.0607 17.304C44.0607 17.304 44.1002 17.3435 44.179 17.4223C44.2578 17.5011 44.4098 17.5405 44.6351 17.5405C44.8603 17.5405 45.0517 17.4617 45.2094 17.304C45.3671 17.1464 45.4459 16.9549 45.4459 16.7297C45.4459 16.5045 45.3671 16.313 45.2094 16.1554C45.0517 15.9977 44.8603 15.9189 44.6351 15.9189C44.4098 15.9189 44.2184 15.9977 44.0607 16.1554C43.9031 16.313 43.8243 16.5045 43.8243 16.7297C43.8243 16.9549 43.9031 17.1464 44.0607 17.304ZM35.4459 30.5135L36.2567 32C36.8873 33.1712 36.8873 34.3423 36.2567 35.5135L34.7026 38.6216H34.8378C35.2882 38.6216 35.5134 38.8468 35.5134 39.2973C35.5134 39.7477 35.2882 39.973 34.8378 39.973H34.4324L35.5134 44.3648C35.6035 44.5901 35.581 44.7815 35.4459 44.9392C35.3107 45.0968 35.1306 45.1757 34.9053 45.1757H24.0945C23.8693 45.1757 23.6891 45.0968 23.554 44.9392C23.4189 44.7815 23.3963 44.5901 23.4864 44.3648L24.5675 39.973H24.1621C23.7116 39.973 23.4864 39.7477 23.4864 39.2973C23.4864 38.8468 23.7116 38.6216 24.1621 38.6216H24.2972L22.7432 35.5135C22.1125 34.3423 22.1125 33.1712 22.7432 32L28.1486 22C28.2837 21.7748 28.4864 21.6621 28.7567 21.6621H30.2432C30.5134 21.6621 30.7162 21.7748 30.8513 22L32.7432 25.5135C32.9684 25.9189 32.8783 26.223 32.4729 26.4257C32.0675 26.6284 31.7522 26.5495 31.527 26.1892L30.1756 23.6216V27.8108C30.1756 28.2612 29.9504 28.4865 29.4999 28.4865C29.0495 28.4865 28.8243 28.2612 28.8243 27.8108V23.6216L23.9594 32.6757C23.554 33.3964 23.5315 34.1396 23.8918 34.9054L25.8513 38.6216H33.1486L35.108 34.9054C35.4684 34.1396 35.4459 33.3964 35.0405 32.6757L34.2297 31.1892C34.0495 30.7838 34.1508 30.4685 34.5337 30.2432C34.9166 30.018 35.2207 30.1081 35.4459 30.5135ZM34.027 43.8243L33.0134 39.973H25.9864L24.9729 43.8243H34.027Z" fill="white"/>
</svg>
